inDegrees=yes
name=ik_S42_A10_T02
DataType=double
version=3
OpenSimVersion=4.3-2021-08-27-4bc7ad9
endheader
time	pelvis_tilt	pelvis_list	pelvis_rotation	pelvis_tx	pelvis_ty	pelvis_tz	hip_flexion_r	hip_adduction_r	hip_rotation_r	knee_angle_r	knee_angle_r_beta	ankle_angle_r	subtalar_angle_r	mtp_angle_r	hip_flexion_l	hip_adduction_l	hip_rotation_l	knee_angle_l	knee_angle_l_beta	ankle_angle_l	subtalar_angle_l	mtp_angle_l	lumbar_extension	lumbar_bending	lumbar_rotation	arm_flex_r	arm_add_r	arm_rot_r	elbow_flex_r	pro_sup_r	wrist_flex_r	wrist_dev_r	arm_flex_l	arm_add_l	arm_rot_l	elbow_flex_l	pro_sup_l	wrist_flex_l	wrist_dev_l
5.179999999999978	2.919748629588967	4.122215378622555	24.6140771290485	0	0.9399999999999999	0	41.87274921105129	-9.980957728045144	-9.90009016934785	50.32236171842488	0.8782908993660657	0	0	0	41.87274921105129	-9.980957728045144	-9.90009016934785	50.32236171842488	0.8782908993660657	0	0	0	4.541930725421507	2.042492833467163	1.88674924601023	141.8772987871753	-8.577146339668403	56.99937572140355	47.0262310253912	44.85670887975443	0	0	131.651100859227	-9.41686864909755	35.1430836489067	62.50146172501773	44.54929320575322	0	0
5.199999999999977	3.039799692491488	4.209443236284612	24.04982710322698	0	0.9399999999999999	0	41.87652876741426	-9.981037163432761	-9.900358667237823	50.3261797473136	0.8783575365411102	0	0	0	41.87652876741426	-9.981037163432761	-9.900358667237823	50.3261797473136	0.8783575365411102	0	0	0	4.663095931499956	2.113665240229194	2.301402100210079	141.2329301632707	-9.752359692372449	55.55384803952052	50.31390658877936	49.36316484988372	0	0	130.9015154136335	-9.949989258888298	33.86689041985424	63.50909895845766	45.30761863313808	0	0
5.219999999999977	3.00972541739881	4.224686898274141	24.00750512461441	0	0.9399999999999999	0	41.93135146973312	-9.981732059843175	-9.903240243359223	50.39976616871264	0.8796418618792834	0	0	0	41.93135146973312	-9.981732059843175	-9.903240243359223	50.39976616871264	0.8796418618792834	0	0	0	4.639606994961052	2.149466548429236	2.302290958593988	141.2877875209368	-10.643304959422	54.63866289918381	53.25893220946264	46.75755488203694	0	0	130.9789263867611	-10.6202704748126	32.07729191202868	64.28537429384957	45.27882783747158	0	0
5.239999999999976	3.023931958576072	4.214074237607004	23.6767854288993	0	0.9399999999999999	0	41.97704093366576	-9.982362826343371	-9.905744620391003	50.46041129936172	0.8807003190844122	0	0	0	41.97704093366576	-9.982362826343371	-9.905744620391003	50.46041129936172	0.8807003190844122	0	0	0	4.620614016190926	2.183915823594885	2.632593777236291	141.0967732527113	-11.48593489463221	54.35741328955526	54.846591847888	49.38568402444102	0	0	131.0110114702219	-12.08377262231246	29.96258277278618	66.30026726951623	44.65029175169936	0	0
5.259999999999976	2.986609742851518	4.184674528015217	23.80218331872513	0	0.9399999999999999	0	41.97782203695448	-9.982378168431344	-9.905797844057908	50.46122550460882	0.8807145296467609	0	0	0	41.97782203695448	-9.982378168431344	-9.905797844057908	50.46122550460882	0.8807145296467609	0	0	0	4.580358264502522	2.162421423633526	2.546954776350677	141.1264944888873	-11.47426965528309	54.40601124183262	55.42436810588524	48.82373640258697	0	0	131.1295876220745	-12.04565646254935	30.02774492987622	67.02077529864114	44.73380626864403	0	0
5.279999999999975	2.984220193486695	4.156303795739772	23.84784155136919	0	0.9399999999999999	0	41.97897253511312	-9.982401282892683	-9.905877425279259	50.46239949599591	0.8807350196618557	0	0	0	41.97897253511312	-9.982401282892683	-9.905877425279259	50.46239949599591	0.8807350196618557	0	0	0	4.565267921984225	2.140215453279096	2.573041600861572	140.9040055236844	-11.84558343991272	54.89053932620397	56.07219502948374	48.38789653957075	0	0	130.6849227162749	-12.41419046340584	30.32066640342584	68.77278433793609	44.6827715519114	0	0
5.299999999999975	2.960910326798134	4.129541308753279	23.88732058024652	0	0.9399999999999999	0	41.99352538950178	-9.982606825448249	-9.906684676965053	50.48150309783203	0.8810684404128861	0	0	0	41.99352538950178	-9.982606825448249	-9.906684676965053	50.48150309783203	0.8810684404128861	0	0	0	4.529451953611944	2.132303368053396	2.623591015503167	139.9749174776611	-11.16457079923965	56.62078357439682	55.70327687082735	47.66495091026679	0	0	130.1241480957759	-12.58226155518418	31.05103025923687	69.61321198316629	44.17195238737361	0	0
5.319999999999975	2.91781000761953	4.096038189399851	24.0656015462386	0	0.9399999999999999	0	41.99515925077129	-9.982639848001234	-9.906798258380961	50.48314931471773	0.8810971723177434	0	0	0	41.99515925077129	-9.982639848001234	-9.906798258380961	50.48314931471773	0.8810971723177434	0	0	0	4.481862577967973	2.109703504742345	2.533053218781789	140.0731748314653	-11.22147257118873	56.68927999014508	55.66890839633996	47.2689349795103	0	0	129.4903012352329	-12.91176206863732	32.1025805557751	70.55245029526381	43.66939332516002	0	0
5.339999999999974	2.895237552094645	4.077822907003235	24.2192020641747	0	0.9399999999999999	0	41.99638880339716	-9.982664619455212	-9.90688357144254	50.48439055086705	0.8811188359753439	0	0	0	41.99638880339716	-9.982664619455212	-9.90688357144254	50.48439055086705	0.8811188359753439	0	0	0	4.460878988151752	2.08754658135519	2.410476389640308	140.0688799705311	-11.23928728043676	56.77013293768258	55.54320048992872	46.55279506002385	0	0	128.5851634381277	-13.36014533882353	33.16260198546545	71.44361500979144	42.69488520847214	0	0
5.359999999999974	2.712222343213588	4.031685113693245	24.40852887850453	0	0.9399999999999999	0	42.01590648190881	-9.982935839856081	-9.907956523508771	50.51012397608177	0.8815679689731565	0	0	0	42.01590648190881	-9.982935839856081	-9.907956523508771	50.51012397608177	0.8815679689731565	0	0	0	4.272606665262691	2.124923473378524	2.412383112714318	139.2347739650065	-11.18859538424719	56.88214116115895	55.80669383259381	46.92582460855692	0	0	127.8770169719703	-13.83369960106699	33.25467642595365	72.37707850095282	42.53946245102471	0	0
5.379999999999973	2.644652814818785	4.018658952105353	24.5262666166121	0	0.9399999999999999	0	42.01723499603801	-9.982962332833804	-9.908048194651986	50.51146624001559	0.8815913958982323	0	0	0	42.01723499603801	-9.982962332833804	-9.908048194651986	50.51146624001559	0.8815913958982323	0	0	0	4.208629893633086	2.135589130938992	2.367317845172099	138.5270005341933	-11.17075977422617	56.20631673528914	55.98839513964242	47.48322648415435	0	0	126.7621220779832	-14.16798398936503	32.61747026091631	72.83479272512747	42.61877709069067	0	0
5.399999999999973	2.392846673441776	3.888732944495338	24.90208439008657	0	0.9399999999999999	0	42.05120041252651	-9.983413802423238	-9.909870066562419	50.55688411346055	0.882384087329101	0	0	0	42.05120041252651	-9.983413802423238	-9.909870066562419	50.55688411346055	0.882384087329101	0	0	0	3.922928143994566	2.127748010926974	2.385391683241253	136.7414615669621	-11.60740461296913	54.96650837114948	57.11065971756436	49.23593605253131	0	0	125.8484894318103	-14.13615134615546	31.37799945241618	73.17670463860287	42.65977975763115	0	0
5.419999999999972	2.293879101775767	3.801949472465505	24.96664387968427	0	0.9399999999999999	0	42.07609166424806	-9.983743971782216	-9.911203623120427	50.59004409924027	0.8829628382608717	0	0	0	42.07609166424806	-9.983743971782216	-9.911203623120427	50.59004409924027	0.8829628382608717	0	0	0	3.788566472222354	2.105497092729299	2.502250820058753	135.0421829855498	-12.00053979313661	54.91377155818912	57.83347865254449	48.65513993239463	0	0	124.3879633246156	-14.15794079711765	30.19830940114164	73.57155129960515	42.58006279732967	0	0
5.439999999999972	2.253015605217818	3.759418987834404	24.96993192807471	0	0.9399999999999999	0	42.09918900864452	-9.984044117334431	-9.912427203980698	50.62093364506259	0.8835019625399169	0	0	0	42.09918900864452	-9.984044117334431	-9.912427203980698	50.62093364506259	0.8835019625399169	0	0	0	3.727358647021407	2.096440873223504	2.582123816758973	134.9587828362278	-12.01091444104178	55.18552171870564	57.62359741506604	47.23314814100403	0	0	122.426650252926	-14.38390797816942	28.93872573293746	74.57589258035341	43.06148404098401	0	0
5.459999999999972	2.154971044547268	3.657299990200594	24.9793493938029	0	0.9399999999999999	0	42.14631223988053	-9.984673862962218	-9.914967274609316	50.6825712430044	0.8845777415670218	0	0	0	42.14631223988053	-9.984673862962218	-9.914967274609316	50.6825712430044	0.8845777415670218	0	0	0	3.59292870164221	2.057886940719585	2.716610460542634	133.0009087599956	-12.53716721898335	55.27542875395611	58.55720535690461	46.6963102631473	0	0	117.2201006436366	-15.26197849205615	26.81492909376241	77.44351496275807	41.96294696952407	0	0
5.479999999999971	2.076249717324961	3.555352839563666	25.07228654653042	0	0.9399999999999999	0	42.16890756126603	-9.984961515039434	-9.916151475856608	50.71264583954209	0.8851026422978134	0	0	0	42.16890756126603	-9.984961515039434	-9.916151475856608	50.71264583954209	0.8851026422978134	0	0	0	3.470355801665566	2.010267321239904	2.762358658478782	133.0160792741367	-12.60302133469573	55.6162626934033	58.29354877114336	44.75926557456899	0	0	114.1415105931398	-15.8339468234551	25.90734443941275	79.49117938097085	40.9330013426194	0	0
5.499999999999971	1.933561865959132	3.434436553377482	25.11201569775764	0	0.9399999999999999	0	42.21597082884094	-9.985554996955596	-9.918607257239769	50.77507913271784	0.8861923088265932	0	0	0	42.21597082884094	-9.985554996955596	-9.918607257239769	50.77507913271784	0.8861923088265932	0	0	0	3.283701843112635	1.979820131499021	2.881413690504444	128.3273412151119	-13.89016713563523	55.32974343792611	61.04844579492517	45.34956887500299	0	0	114.439138323408	-15.57355477792247	26.19034373518433	79.02614511799649	38.58740224297793	0	0
5.51999999999997	1.853361484319667	3.363668713104802	25.17760046508513	0	0.9399999999999999	0	42.25872858719801	-9.98607344682137	-9.920787266170347	50.83266966598976	0.8871974532501675	0	0	0	42.25872858719801	-9.98607344682137	-9.920787266170347	50.83266966598976	0.8871974532501675	0	0	0	3.178861622373322	1.956966983233015	2.868735460247667	125.530105170972	-14.7572415685613	54.69319080538727	62.84868745396092	45.94949016068822	0	0	111.0401182962745	-16.36465363637683	25.32979645063532	81.2560949263258	37.69616760637305	0	0
5.53999999999997	1.565589338323517	3.132123170525228	25.30036694489344	0	0.9399999999999999	0	42.29873113518057	-9.986549077734152	-9.922804997617369	50.88658276845434	0.8881384143981395	0	0	0	42.29873113518057	-9.986549077734152	-9.922804997617369	50.88658276845434	0.8881384143981395	0	0	0	2.820091437704284	1.867698169113256	2.793002041960936	122.5986175328174	-15.78489286413092	53.63678110060674	64.98672227649921	45.2715584074186	0	0	107.9079286408109	-17.23258470399239	24.27378486416771	83.93268488073346	37.8557312247267	0	0
5.559999999999969	1.572946993548311	3.129901864134233	25.35426063707428	0	0.9399999999999999	0	42.34270424115122	-9.987060483855915	-9.924996896941177	50.94586338291531	0.8891730563030888	0	0	0	42.34270424115122	-9.987060483855915	-9.924996896941177	50.94586338291531	0.8891730563030888	0	0	0	2.83133017500312	1.862250379937542	2.730960867048998	118.7155283959688	-16.97547341303783	52.33842659531197	67.38925806556719	44.86487623131445	0	0	103.4709881606694	-18.1602785708596	22.96950000259826	86.67447932454813	36.31068124151111	0	0
